<?xml version="1.0" encoding="utf-8"?>
<svg version="1.1" xmlns:xlink="http://www.w3.org/1999/xlink" width="116px" height="40px" xmlns="http://www.w3.org/2000/svg">
  <g transform="matrix(1 0 0 1 -675 -296 )">
    <path d="M 675 296  L 791 296  L 791 336  L 675 336  L 675 296  " fill-rule="nonzero" fill="#cccccc" stroke="none" />
    <path d="M 678 299  L 788 299  L 788 333  L 678 333  L 678 299  " fill-rule="nonzero" fill="#ffffff" stroke="none" />
    <path d="M 738.32 308  C 736.6400000000001 308  735.32 306.68  735.32 305  C 735.32 303.32  736.6400000000001 302  738.32 302  C 740 302  741.32 303.32  741.32 305  C 741.32 306.68  740 308  738.32 308  " fill-rule="nonzero" fill="#cccccc" stroke="none" />
    <path d="M 679 332  L 679 314.4  L 706 306.4  L 743.8 325.37931034482756  L 765.4 311.2  L 787 325.37931034482756  L 787 332  L 679 332  " fill-rule="nonzero" fill="#169bd5" stroke="none" />
  </g>
</svg>