<?xml version="1.0" encoding="utf-8"?>
<svg version="1.1" xmlns:xlink="http://www.w3.org/1999/xlink" width="12px" height="12px" viewBox="523 351.5  12 12" xmlns="http://www.w3.org/2000/svg">
  <path d="M 529 351.5  C 532.36 351.5  535 354.14  535 357.5  C 535 360.86  532.36 363.5  529 363.5  C 525.64 363.5  523 360.86  523 357.5  C 523 354.14  525.64 351.5  529 351.5  Z " fill-rule="nonzero" fill="#ffffff" stroke="none" />
  <path d="M 529 352  C 532.08 352  534.5 354.42  534.5 357.5  C 534.5 360.58  532.08 363  529 363  C 525.92 363  523.5 360.58  523.5 357.5  C 523.5 354.42  525.92 352  529 352  Z " stroke-width="1" stroke="#797979" fill="none" />
  <path d="M 529 360.5  C 527.32 360.5  526 359.18  526 357.5  C 526 355.82  527.32 354.5  529 354.5  C 530.68 354.5  532 355.82  532 357.5  C 532 359.18  530.68 360.5  529 360.5  " fill-rule="nonzero" fill="#797979" stroke="none" />
</svg>