<?xml version="1.0" encoding="utf-8"?>
<svg version="1.1" xmlns:xlink="http://www.w3.org/1999/xlink" width="872px" height="498px" xmlns="http://www.w3.org/2000/svg">
  <defs>
    <filter x="0px" y="0px" width="872px" height="498px" filterUnits="userSpaceOnUse" id="filter29">
      <feOffset dx="5" dy="5" in="SourceAlpha" result="shadowOffsetInner" />
      <feGaussianBlur stdDeviation="2.5" in="shadowOffsetInner" result="shadowGaussian" />
      <feComposite in2="shadowGaussian" operator="atop" in="SourceAlpha" result="shadowComposite" />
      <feColorMatrix type="matrix" values="0 0 0 0 0  0 0 0 0 0  0 0 0 0 0  0 0 0 0.34901960784313724 0  " in="shadowComposite" />
    </filter>
    <g id="widget30">
      <path d="M 0.5 10.000000000000002  A 9.5 9.5 0 0 1 9.999999999999998 0.5 L 852 0.5  A 9.5 9.5 0 0 1 861.5 10 L 861.5 478  A 9.5 9.5 0 0 1 852 487.5 L 10 487.5  A 9.5 9.5 0 0 1 0.5 478 L 0.5 10  Z " fill-rule="nonzero" fill="#ffffff" stroke="none" fill-opacity="0.996078431372549" />
      <path d="M 0.5 10.000000000000002  A 9.5 9.5 0 0 1 9.999999999999998 0.5 L 852 0.5  A 9.5 9.5 0 0 1 861.5 10 L 861.5 478  A 9.5 9.5 0 0 1 852 487.5 L 10 487.5  A 9.5 9.5 0 0 1 0.5 478 L 0.5 10  Z " stroke-width="1" stroke="#797979" fill="none" />
    </g>
  </defs>
  <g>
    <use xlink:href="#widget30" filter="url(#filter29)" />
    <use xlink:href="#widget30" />
  </g>
</svg>